<svg width="30" height="30" viewBox="0 0 30 30" fill="none" xmlns="http://www.w3.org/2000/svg">
<g id="Phosphor / chat-teardrop-dots-regular-24px">
<path id="Vector" d="M15.4688 25.3125H5.58992C5.47099 25.3141 5.35294 25.2918 5.24275 25.247C5.13257 25.2022 5.03246 25.1358 4.94836 25.0517C4.86425 24.9676 4.79784 24.8675 4.75306 24.7573C4.70827 24.6471 4.686 24.5291 4.68758 24.4102V14.5312C4.68758 11.6719 5.82346 8.92963 7.84533 6.90775C9.86721 4.88588 12.6095 3.75 15.4688 3.75C16.8846 3.75 18.2866 4.02887 19.5946 4.57067C20.9027 5.11248 22.0912 5.90662 23.0923 6.90775C24.0935 7.90889 24.8876 9.0974 25.4294 10.4054C25.9712 11.7135 26.2501 13.1154 26.2501 14.5312C26.2501 15.9471 25.9712 17.349 25.4294 18.6571C24.8876 19.9651 24.0935 21.1536 23.0923 22.1547C22.0912 23.1559 20.9027 23.95 19.5946 24.4918C18.2866 25.0336 16.8846 25.3125 15.4688 25.3125Z" stroke="#F2F2F2" stroke-linecap="round" stroke-linejoin="round"/>
<path id="Vector_2" d="M15.4688 13.6406C16.2195 13.6406 16.8281 14.2492 16.8281 15C16.8281 15.7508 16.2195 16.3594 15.4688 16.3594C14.718 16.3594 14.1094 15.7508 14.1094 15C14.1094 14.2492 14.718 13.6406 15.4688 13.6406Z" fill="white" stroke="white" stroke-width="0.09375"/>
<path id="Vector_3" d="M9.84375 13.6406C10.5945 13.6406 11.2031 14.2492 11.2031 15C11.2031 15.7508 10.5945 16.3594 9.84375 16.3594C9.09299 16.3594 8.48438 15.7508 8.48438 15C8.48438 14.2492 9.09299 13.6406 9.84375 13.6406Z" fill="white" stroke="white" stroke-width="0.09375"/>
<path id="Vector_4" d="M21.0938 13.6406C21.8445 13.6406 22.4531 14.2492 22.4531 15C22.4531 15.7508 21.8445 16.3594 21.0938 16.3594C20.343 16.3594 19.7344 15.7508 19.7344 15C19.7344 14.2492 20.343 13.6406 21.0938 13.6406Z" fill="white" stroke="white" stroke-width="0.09375"/>
</g>
</svg>
