<svg width="32" height="32" viewBox="0 0 32 32" fill="none" xmlns="http://www.w3.org/2000/svg">
<g id="Vector">
<path d="M29.1156 12.6669H27.6657C27.3718 12.6323 27.0925 12.52 26.8564 12.3417C26.6202 12.1633 26.4359 11.9253 26.3222 11.6521C26.2085 11.3789 26.1696 11.0804 26.2095 10.7872C26.2494 10.494 26.3666 10.2167 26.5491 9.9838L27.5491 8.98388C27.7239 8.81038 27.8627 8.60398 27.9574 8.37659C28.0521 8.1492 28.1008 7.90531 28.1008 7.65899C28.1008 7.41267 28.0521 7.16878 27.9574 6.94139C27.8627 6.714 27.7239 6.5076 27.5491 6.3341L25.6159 4.33426C25.4424 4.15941 25.236 4.02064 25.0086 3.92594C24.7812 3.83124 24.5373 3.78248 24.291 3.78248C24.0447 3.78248 23.8008 3.83124 23.5734 3.92594C23.346 4.02064 23.1396 4.15941 22.9661 4.33426L21.9662 5.33418C21.7413 5.50288 21.4775 5.61197 21.1992 5.65131C20.9208 5.69064 20.6371 5.65894 20.3743 5.55915C20.1115 5.45936 19.8783 5.29473 19.6962 5.08056C19.5142 4.8664 19.3892 4.60967 19.3331 4.33426V2.86771C19.3332 2.61688 19.2828 2.3686 19.1849 2.13768C19.0869 1.90677 18.9435 1.69796 18.763 1.52374C18.5826 1.34952 18.3689 1.21345 18.1346 1.12367C17.9004 1.03389 17.6505 0.992233 17.3999 1.00119H14.6001C14.3494 0.992233 14.0995 1.03389 13.8653 1.12367C13.6311 1.21345 13.4174 1.34952 13.237 1.52374C13.0565 1.69796 12.913 1.90677 12.8151 2.13768C12.7172 2.3686 12.6668 2.61688 12.6669 2.86771V4.33426C12.6323 4.62813 12.52 4.90748 12.3417 5.1436C12.1633 5.37972 11.9253 5.5641 11.6521 5.67779C11.3789 5.79148 11.0804 5.83038 10.7872 5.79049C10.494 5.75061 10.2167 5.63337 9.98381 5.45083L9.03388 4.33426C8.86038 4.15941 8.65398 4.02064 8.42659 3.92594C8.1992 3.83124 7.95531 3.78248 7.70899 3.78248C7.46267 3.78248 7.21878 3.83124 6.99139 3.92594C6.764 4.02064 6.5576 4.15941 6.38409 4.33426L4.33426 6.38409C4.15941 6.5576 4.02064 6.76399 3.92594 6.99138C3.83124 7.21878 3.78248 7.46266 3.78248 7.70899C3.78248 7.95531 3.83124 8.19919 3.92594 8.42658C4.02064 8.65398 4.15941 8.86037 4.33426 9.03388L5.33418 10.0338C5.50288 10.2586 5.61197 10.5225 5.65131 10.8008C5.69064 11.0791 5.65894 11.3629 5.55915 11.6257C5.45936 11.8884 5.29473 12.1217 5.08057 12.3038C4.86641 12.4858 4.60968 12.6107 4.33426 12.6669H2.88438C2.63215 12.6645 2.38205 12.7132 2.14919 12.8102C1.91632 12.9071 1.70552 13.0502 1.52951 13.2309C1.35351 13.4116 1.21595 13.6261 1.12514 13.8614C1.03434 14.0967 0.992174 14.348 1.00119 14.6001V17.3999C0.992236 17.6505 1.03389 17.9004 1.12367 18.1346C1.21346 18.3689 1.34952 18.5826 1.52375 18.763C1.69797 18.9434 1.90677 19.0869 2.13769 19.1849C2.3686 19.2828 2.61688 19.3332 2.86771 19.333H4.33426C4.62813 19.3677 4.90748 19.4799 5.1436 19.6583C5.37973 19.8366 5.5641 20.0746 5.67779 20.3478C5.79148 20.621 5.83038 20.9196 5.7905 21.2128C5.75061 21.506 5.63337 21.7833 5.45084 22.0162L4.45092 23.0161C4.27607 23.1896 4.1373 23.396 4.0426 23.6234C3.9479 23.8508 3.89914 24.0947 3.89914 24.341C3.89914 24.5873 3.9479 24.8312 4.0426 25.0586C4.1373 25.286 4.27607 25.4924 4.45092 25.6659L6.38409 27.6657C6.5576 27.8406 6.764 27.9793 6.99139 28.074C7.21878 28.1687 7.46267 28.2175 7.70899 28.2175C7.95531 28.2175 8.1992 28.1687 8.42659 28.074C8.65398 27.9793 8.86038 27.8406 9.03388 27.6657L10.0338 26.6658C10.2586 26.4971 10.5225 26.388 10.8008 26.3487C11.0791 26.3093 11.3629 26.341 11.6257 26.4408C11.8884 26.5406 12.1217 26.7052 12.3038 26.9194C12.4858 27.1336 12.6107 27.3903 12.6669 27.6657V29.0656C12.6576 29.322 12.7012 29.5775 12.7951 29.8163C12.8889 30.0551 13.031 30.2719 13.2124 30.4533C13.3938 30.6347 13.6106 30.7768 13.8494 30.8706C14.0882 30.9645 14.3437 31.0081 14.6001 30.9988H17.3999C17.6505 31.0077 17.9004 30.9661 18.1346 30.8763C18.3689 30.7865 18.5826 30.6505 18.763 30.4762C18.9435 30.302 19.0869 30.0932 19.1849 29.8623C19.2828 29.6314 19.3332 29.3831 19.3331 29.1323V27.6657C19.3677 27.3718 19.48 27.0925 19.6583 26.8564C19.8366 26.6202 20.0746 26.4359 20.3478 26.3222C20.621 26.2085 20.9196 26.1696 21.2128 26.2095C21.506 26.2494 21.7833 26.3666 22.0162 26.5491L23.0161 27.5491C23.1896 27.7239 23.396 27.8627 23.6234 27.9574C23.8508 28.0521 24.0947 28.1008 24.341 28.1008C24.5873 28.1008 24.8312 28.0521 25.0586 27.9574C25.286 27.8627 25.4924 27.7239 25.6659 27.5491L27.6657 25.6159C27.8406 25.4424 27.9793 25.236 28.074 25.0086C28.1687 24.7812 28.2175 24.5373 28.2175 24.291C28.2175 24.0447 28.1687 23.8008 28.074 23.5734C27.9793 23.346 27.8406 23.1396 27.6657 22.9661L26.6658 21.9662C26.4971 21.7413 26.388 21.4775 26.3487 21.1992C26.3093 20.9208 26.341 20.6371 26.4408 20.3743C26.5406 20.1115 26.7052 19.8783 26.9194 19.6962C27.1336 19.5142 27.3903 19.3892 27.6657 19.333H29.0823C29.3373 19.34 29.591 19.2947 29.8278 19.1998C30.0646 19.1049 30.2794 18.9625 30.459 18.7813C30.6386 18.6002 30.7792 18.3841 30.872 18.1465C30.9648 17.9089 31.008 17.6548 30.9988 17.3999V14.6001C31.0078 14.348 30.9656 14.0967 30.8748 13.8614C30.784 13.6261 30.6465 13.4116 30.4705 13.2309C30.2945 13.0502 30.0837 12.9071 29.8508 12.8102C29.6179 12.7132 29.3678 12.6645 29.1156 12.6669Z" stroke="#F2F2F2" stroke-opacity="0.94902" stroke-width="1.69" stroke-linecap="round" stroke-linejoin="round"/>
<path d="M16 19.7497C18.0709 19.7497 19.7497 18.0709 19.7497 16C19.7497 13.9291 18.0709 12.2503 16 12.2503C13.9291 12.2503 12.2503 13.9291 12.2503 16C12.2503 18.0709 13.9291 19.7497 16 19.7497Z" stroke="#F2F2F2" stroke-opacity="0.94902" stroke-width="1.69" stroke-linecap="round" stroke-linejoin="round"/>
</g>
</svg>
