<svg width="20" height="20" viewBox="0 0 20 20" fill="none" xmlns="http://www.w3.org/2000/svg">
<g id="Vector">
<path d="M17.87 7.99998H17C16.8236 7.9792 16.656 7.91184 16.5143 7.80482C16.3727 7.69781 16.262 7.555 16.1938 7.39107C16.1256 7.22714 16.1022 7.048 16.1262 6.87206C16.1501 6.69612 16.2205 6.52973 16.33 6.38998L16.93 5.78998C17.0349 5.68587 17.1182 5.56202 17.175 5.42558C17.2318 5.28913 17.2611 5.14279 17.2611 4.99498C17.2611 4.84718 17.2318 4.70083 17.175 4.56439C17.1182 4.42794 17.0349 4.30409 16.93 4.19998L15.77 2.99998C15.6659 2.89507 15.542 2.8118 15.4056 2.75497C15.2691 2.69815 15.1228 2.66889 14.975 2.66889C14.8272 2.66889 14.6808 2.69815 14.5444 2.75497C14.4079 2.8118 14.2841 2.89507 14.18 2.99998L13.58 3.59998C13.4451 3.70121 13.2868 3.76667 13.1197 3.79028C12.9527 3.81388 12.7825 3.79486 12.6248 3.73498C12.4671 3.6751 12.3271 3.57631 12.2179 3.4478C12.1087 3.3193 12.0337 3.16524 12 2.99998V2.11998C12.0001 1.96947 11.9698 1.82049 11.9111 1.68193C11.8523 1.54337 11.7662 1.41808 11.6579 1.31354C11.5497 1.209 11.4214 1.12735 11.2809 1.07348C11.1403 1.0196 10.9904 0.994607 10.84 0.999982H9.15998C9.00957 0.994607 8.85962 1.0196 8.71908 1.07348C8.57855 1.12735 8.45031 1.209 8.34204 1.31354C8.23376 1.41808 8.14767 1.54337 8.0889 1.68193C8.03013 1.82049 7.99989 1.96947 7.99998 2.11998V2.99998C7.9792 3.17632 7.91184 3.34394 7.80482 3.48563C7.69781 3.62731 7.555 3.73795 7.39107 3.80617C7.22714 3.87439 7.048 3.89773 6.87206 3.87379C6.69613 3.84986 6.52973 3.77951 6.38998 3.66998L5.81998 2.99998C5.71587 2.89507 5.59202 2.8118 5.45558 2.75497C5.31913 2.69815 5.17279 2.66889 5.02498 2.66889C4.87718 2.66889 4.73083 2.69815 4.59439 2.75497C4.45794 2.8118 4.3341 2.89507 4.22998 2.99998L2.99998 4.22998C2.89507 4.33409 2.8118 4.45794 2.75497 4.59439C2.69815 4.73083 2.66889 4.87718 2.66889 5.02498C2.66889 5.17279 2.69815 5.31913 2.75497 5.45558C2.8118 5.59202 2.89507 5.71587 2.99998 5.81998L3.59998 6.41998C3.70121 6.55489 3.76667 6.71322 3.79028 6.88022C3.81388 7.04723 3.79486 7.21749 3.73498 7.37517C3.6751 7.53285 3.57631 7.67282 3.44781 7.78206C3.3193 7.89131 3.16525 7.96627 2.99998 7.99998H2.12998C1.97864 7.99853 1.82857 8.02778 1.68884 8.08594C1.54911 8.14411 1.42261 8.23 1.317 8.33841C1.21139 8.44683 1.12885 8.57553 1.07436 8.71673C1.01987 8.85794 0.994572 9.00872 0.999984 9.15998V10.84C0.994609 10.9904 1.0196 11.1403 1.07348 11.2809C1.12735 11.4214 1.209 11.5497 1.31354 11.6579C1.41808 11.7662 1.54337 11.8523 1.68193 11.9111C1.82049 11.9698 1.96948 12.0001 2.11998 12H2.99998C3.17632 12.0208 3.34394 12.0881 3.48563 12.1951C3.62731 12.3022 3.73795 12.445 3.80617 12.6089C3.87439 12.7728 3.89773 12.952 3.8738 13.1279C3.84986 13.3038 3.77952 13.4702 3.66998 13.61L3.06998 14.21C2.96507 14.3141 2.8818 14.4379 2.82497 14.5744C2.76815 14.7108 2.73889 14.8572 2.73889 15.005C2.73889 15.1528 2.76815 15.2991 2.82497 15.4356C2.8818 15.572 2.96507 15.6959 3.06998 15.8L4.22998 17C4.3341 17.1049 4.45794 17.1882 4.59439 17.245C4.73083 17.3018 4.87718 17.3311 5.02498 17.3311C5.17279 17.3311 5.31913 17.3018 5.45558 17.245C5.59202 17.1882 5.71587 17.1049 5.81998 17L6.41998 16.4C6.55489 16.2988 6.71322 16.2333 6.88022 16.2097C7.04723 16.1861 7.21749 16.2051 7.37517 16.265C7.53285 16.3249 7.67282 16.4237 7.78207 16.5522C7.89131 16.6807 7.96627 16.8347 7.99998 17V17.84C7.99438 17.9938 8.02056 18.1472 8.07687 18.2904C8.13319 18.4337 8.21843 18.5638 8.32728 18.6727C8.43614 18.7815 8.56626 18.8668 8.70953 18.9231C8.8528 18.9794 9.00614 19.0056 9.15998 19H10.84C10.9904 19.0054 11.1403 18.9804 11.2809 18.9265C11.4214 18.8726 11.5497 18.791 11.6579 18.6864C11.7662 18.5819 11.8523 18.4566 11.9111 18.318C11.9698 18.1795 12.0001 18.0305 12 17.88V17C12.0208 16.8236 12.0881 16.656 12.1951 16.5143C12.3022 16.3727 12.445 16.262 12.6089 16.1938C12.7728 16.1256 12.952 16.1022 13.1279 16.1262C13.3038 16.1501 13.4702 16.2205 13.61 16.33L14.21 16.93C14.3141 17.0349 14.4379 17.1182 14.5744 17.175C14.7108 17.2318 14.8572 17.2611 15.005 17.2611C15.1528 17.2611 15.2991 17.2318 15.4356 17.175C15.572 17.1182 15.6959 17.0349 15.8 16.93L17 15.77C17.1049 15.6659 17.1882 15.542 17.245 15.4056C17.3018 15.2691 17.3311 15.1228 17.3311 14.975C17.3311 14.8272 17.3018 14.6808 17.245 14.5444C17.1882 14.4079 17.1049 14.2841 17 14.18L16.4 13.58C16.2988 13.4451 16.2333 13.2867 16.2097 13.1197C16.1861 12.9527 16.2051 12.7825 16.265 12.6248C16.3249 12.4671 16.4237 12.3271 16.5522 12.2179C16.6807 12.1087 16.8347 12.0337 17 12H17.85C18.003 12.0042 18.1552 11.977 18.2973 11.92C18.4394 11.8631 18.5683 11.7776 18.6761 11.6689C18.7839 11.5602 18.8682 11.4306 18.9239 11.288C18.9796 11.1454 19.0055 10.993 19 10.84V9.15998C19.0054 9.00872 18.9801 8.85794 18.9256 8.71673C18.8711 8.57553 18.7886 8.44683 18.683 8.33841C18.5774 8.23 18.4509 8.14411 18.3111 8.08594C18.1714 8.02778 18.0213 7.99853 17.87 7.99998Z" stroke="#000D26" stroke-width="1.69" stroke-linecap="round" stroke-linejoin="round"/>
<path d="M9.99998 12.25C11.2426 12.25 12.25 11.2426 12.25 9.99998C12.25 8.75734 11.2426 7.74998 9.99998 7.74998C8.75734 7.74998 7.74998 8.75734 7.74998 9.99998C7.74998 11.2426 8.75734 12.25 9.99998 12.25Z" stroke="#000D26" stroke-width="1.69" stroke-linecap="round" stroke-linejoin="round"/>
</g>
</svg>
