<svg width="21" height="19" viewBox="0 0 21 19" fill="none" xmlns="http://www.w3.org/2000/svg">
<path id="Vector" d="M15.1561 1.50006C14.5487 1.4676 13.9409 1.55865 13.3696 1.7677C12.7983 1.97675 12.2754 2.29947 11.8323 2.71635C11.3893 3.13322 11.0353 3.63561 10.7919 4.19313C10.5485 4.75065 10.4207 5.35174 10.4161 5.96006C10.4116 5.35174 10.2838 4.75065 10.0404 4.19313C9.79695 3.63561 9.44303 3.13322 8.99998 2.71635C8.55693 2.29947 8.03395 1.97675 7.46266 1.7677C6.89137 1.55865 6.28362 1.4676 5.67614 1.50006C4.48724 1.609 3.38464 2.16723 2.59308 3.06098C1.80153 3.95473 1.38061 5.11671 1.41614 6.31006C1.41614 14.0601 7.76614 16.7801 9.79614 17.5001C10.199 17.6314 10.6332 17.6314 11.0361 17.5001C13.0361 16.8301 19.3861 14.1101 19.4161 6.36006C19.4647 5.15824 19.0497 3.9837 18.2569 3.07919C17.464 2.17469 16.354 1.60936 15.1561 1.50006Z" stroke="#F2F2F2" stroke-width="1.5" stroke-linecap="round" stroke-linejoin="round"/>
</svg>
