<svg width="32" height="28" viewBox="0 0 32 28" fill="none" xmlns="http://www.w3.org/2000/svg">
<path id="Vector" d="M28.5 8.82904V22.1624C28.5 23.4885 27.9732 24.7602 27.0355 25.6979C26.0979 26.6356 24.8261 27.1624 23.5 27.1624H8.5C7.17392 27.1624 5.90215 26.6356 4.96447 25.6979C4.02678 24.7602 3.5 23.4885 3.5 22.1624V8.82904M28.5 8.82904L31 10.4957M28.5 8.82904L18.5 2.16237L16.9167 1.11237C16.6445 0.93316 16.3258 0.837646 16 0.837646C15.6742 0.837646 15.3555 0.93316 15.0833 1.11237L13.5 2.16237L3.5 8.82904M3.5 8.82904L1 10.4957M12.6667 22.1624H19.3333" stroke="#FFC632" stroke-width="1.5" stroke-linecap="round" stroke-linejoin="round"/>
</svg>
