<svg width="190" height="186" viewBox="0 0 190 186" fill="none" xmlns="http://www.w3.org/2000/svg">
<path d="M33.4455 25.432V50.864H39.0555H44.6655V31.416V11.968H106.375H168.085V66.572V121.176H151.629H135.173V102.252L135.099 83.402L101.065 64.8516L67.0307 46.3012L33.0715 64.8516C14.4463 75.0244 -0.438912 83.6264 0.00988835 83.8508C0.533488 84.15 15.7927 92.4528 33.9691 102.326L67.0307 120.353L94.4075 105.393C109.517 97.24 122.233 90.508 122.607 90.508C123.205 90.508 123.355 97.24 123.131 111.602L122.831 132.77H129.04C132.406 132.77 145.271 132.62 157.613 132.546L180.053 132.396V66.198V1.52588e-05H106.749H33.4455V25.432Z" fill="#00384F"/>
<path d="M23.8713 121.55L24.0957 133.967L45.0397 145.486C56.5589 151.844 66.4325 157.08 66.9561 157.08C67.4797 157.08 77.5029 151.844 89.1717 145.411L110.49 133.742V121.4V109.133L106.6 111.302C92.6125 119.231 67.8537 132.396 67.0309 132.396C66.2081 132.396 32.8473 114.519 26.1153 110.554L23.7217 109.058L23.8713 121.55Z" fill="#00384F"/>
<path d="M45.4136 175.406V185.504H47.6576H49.9016V175.406V165.308H47.6576H45.4136V175.406Z" fill="#00384F"/>
<path d="M123.206 175.406V185.504H125.45H127.694V180.792C127.694 178.248 127.993 175.78 128.292 175.331C129.115 174.06 130.91 173.686 132.406 174.434C133.453 174.957 133.678 176.079 133.678 180.268V185.504H135.922H138.166V179.595C138.166 175.107 137.866 173.312 136.819 172.115C135.398 170.245 131.882 169.871 129.339 171.217C127.768 172.04 127.694 171.965 127.694 168.674C127.694 165.458 127.619 165.308 125.45 165.308H123.206V175.406Z" fill="#00384F"/>
<path d="M175.565 175.406V185.504H177.809C179.979 185.504 180.053 185.354 180.053 182.362V179.221L182.372 182.362C184.317 184.98 185.065 185.504 187.234 185.504C188.655 185.504 189.777 185.354 189.777 185.205C189.777 184.98 188.431 183.26 186.785 181.39L183.793 177.874L186.86 174.209L189.927 170.544H187.01C184.541 170.544 183.868 170.918 182.297 173.312L180.427 176.079L180.203 170.694L179.979 165.308H177.809H175.565V175.406Z" fill="#00384F"/>
<path d="M28.1349 167.776C25.0681 169.871 23.7217 172.264 23.7217 176.004C23.7217 181.465 27.8357 185.504 33.4457 185.504C37.4849 185.504 41.6737 182.512 41.6737 179.595C41.6737 178.248 37.9337 178.697 35.9141 180.268C33.4457 182.213 32.2489 182.138 30.0797 179.894C26.4893 176.378 28.3593 170.544 32.9969 170.544C34.4181 170.544 35.9141 171.068 36.4377 171.666C36.9613 172.264 38.5321 172.788 39.9533 172.788H42.4965L41.2249 170.544C38.5321 166.131 32.4733 164.859 28.1349 167.776Z" fill="#00384F"/>
<path d="M106.974 167.178C100.616 169.946 100.018 179.819 106.002 183.858C109.816 186.476 115.202 185.878 118.119 182.587C120.887 179.52 120.737 178.772 117.596 178.772C116.174 178.772 114.978 179.146 114.978 179.52C114.978 180.792 111.387 181.764 109.442 181.016C106.151 179.744 105.478 173.087 108.47 171.142C109.966 170.17 113.332 170.469 114.529 171.666C115.651 172.788 120.214 173.237 120.214 172.19C120.214 170.768 117.596 168.076 115.277 167.103C112.21 165.832 110.041 165.832 106.974 167.178Z" fill="#00384F"/>
<path d="M57.0073 170.469C54.1649 171.666 52.6689 174.134 52.6689 177.575C52.6689 183.559 56.4837 186.701 61.4205 184.831C62.9165 184.307 63.8141 184.232 63.9637 184.756C64.1133 185.13 65.2353 185.504 66.4321 185.504H68.6013V178.024V170.544H66.3573C65.1605 170.544 64.1133 170.843 64.1133 171.217C64.1133 171.666 62.9165 171.442 61.4953 170.843C60.0741 170.32 58.8025 169.796 58.7277 169.871C58.5781 169.871 57.8301 170.17 57.0073 170.469ZM63.5149 176.154C64.1881 177.575 64.1133 178.323 63.0661 179.894C60.8221 183.26 57.3813 181.914 57.3813 177.65C57.3813 174.733 57.8301 174.284 60.5229 174.284C62.0937 174.284 62.9165 174.808 63.5149 176.154Z" fill="#00384F"/>
<path d="M75.7073 170.32C73.4633 170.918 71.5933 172.863 71.5933 174.658C71.5933 176.752 73.5381 178.473 76.7545 179.296C78.1757 179.67 79.4473 180.343 79.6717 180.866C80.1205 182.362 77.6521 182.811 76.1561 181.465C74.2861 179.819 71.5933 179.894 71.5933 181.689C71.5933 183.709 73.3885 184.906 77.2033 185.354C80.0457 185.654 80.9433 185.429 82.4393 184.008C83.4865 183.036 84.3093 181.689 84.3093 181.016C84.3093 179.221 81.9905 177.351 78.7741 176.453C77.2781 176.004 76.0813 175.256 76.0813 174.658C76.0813 173.386 78.6993 173.162 79.4473 174.284C80.1205 175.406 83.5613 175.182 83.5613 174.06C83.5613 171.666 78.9985 169.497 75.7073 170.32Z" fill="#00384F"/>
<path d="M89.8449 170.843C85.3569 172.788 86.1049 177.276 91.1913 178.922C92.9865 179.52 94.4077 180.492 94.4077 181.016C94.4077 182.512 92.8369 182.736 91.5653 181.39C90.0693 179.969 86.5537 179.894 86.5537 181.315C86.5537 183.185 90.2937 185.504 93.2109 185.504C96.8761 185.504 99.2697 183.709 99.2697 181.016C99.2697 178.622 98.7461 178.174 94.4077 176.528C91.1165 175.256 90.5181 174.06 93.1361 173.686C94.0337 173.536 94.7817 173.76 94.7817 174.209C94.7817 174.658 95.8289 175.032 97.0257 175.032C98.2973 175.032 99.2697 174.808 99.2697 174.583C99.2697 173.162 97.4745 171.367 95.4549 170.619C92.5377 169.646 92.6873 169.646 89.8449 170.843Z" fill="#00384F"/>
<path d="M145.122 170.843C142.205 172.19 141.158 174.06 141.158 178.024C141.158 184.532 149.087 188.122 153.5 183.634C154.547 182.662 155.37 181.465 155.37 181.016C155.37 180.044 151.405 180.044 150.358 181.091C149.161 182.288 146.095 181.614 145.795 180.044C145.571 178.922 146.169 178.772 150.807 178.772C155.968 178.772 156.118 178.697 156.118 176.902C156.118 174.434 152.602 170.768 149.76 170.245C148.563 170.02 146.469 170.32 145.122 170.843ZM150.583 174.808C151.854 176.079 151.779 176.154 149.087 176.378C145.721 176.678 145.047 176.229 146.394 174.658C147.591 173.162 149.012 173.237 150.583 174.808Z" fill="#00384F"/>
<path d="M163.224 170.32C159.035 171.367 156.641 176.752 158.362 181.091C159.633 184.083 161.803 185.504 165.318 185.504C167.562 185.504 168.684 184.98 170.554 183.036L172.948 180.642L170.405 180.418C169.058 180.268 167.562 180.492 167.113 180.941C164.57 183.484 161.055 179.744 162.7 176.154C163.299 174.882 164.196 174.284 165.468 174.284C166.515 174.284 167.338 174.583 167.338 175.032C167.338 175.406 168.535 175.78 169.956 175.78C171.377 175.78 172.574 175.556 172.574 175.331C172.574 173.91 170.629 171.741 168.46 170.843C165.767 169.721 165.692 169.721 163.224 170.32Z" fill="#00384F"/>
</svg>
