<svg width="16" height="20" viewBox="0 0 16 20" fill="none" xmlns="http://www.w3.org/2000/svg">
<rect width="16" height="20" fill="#E5E5E5"/>
<g id="1.1. Tela Inicial" clip-path="url(#clip0_5202_2065)">
<rect width="375" height="812" transform="translate(-224 -61)" fill="#EBEBEB"/>
<g id="Header">
<rect width="375" height="107" transform="translate(-224 -61)" fill="#00384F"/>
<rect id="Rectangle 4290" x="-8" y="-6" width="32" height="32" rx="8" fill="#F2F2F2" fill-opacity="0.94902"/>
<path id="Vector" d="M6.00005 19H10M8.82005 2.57C8.93676 2.4028 8.99956 2.20391 9.00005 2C9.00005 1.73478 8.89469 1.48043 8.70715 1.29289C8.51962 1.10536 8.26526 1 8.00005 1C7.73483 1 7.48048 1.10536 7.29294 1.29289C7.1054 1.48043 7.00005 1.73478 7.00005 2C7.00053 2.20391 7.06334 2.4028 7.18005 2.57M15 15.5C15.005 15.8581 14.8818 16.2061 14.6525 16.4812C14.4233 16.7563 14.1032 16.9404 13.75 17H2.25005C1.89694 16.9404 1.57682 16.7563 1.34757 16.4812C1.11831 16.2061 0.995043 15.8581 1.00005 15.5C0.992967 15.1414 1.11549 14.7923 1.34511 14.5167C1.57473 14.2412 1.89604 14.0577 2.25005 14V8.25C2.25005 6.72501 2.85585 5.26247 3.93418 4.18414C5.01252 3.1058 6.47505 2.5 8.00005 2.5C9.52504 2.5 10.9876 3.1058 12.0659 4.18414C13.1442 5.26247 13.75 6.72501 13.75 8.25V14C14.1041 14.0577 14.4254 14.2412 14.655 14.5167C14.8846 14.7923 15.0071 15.1414 15 15.5Z" stroke="#000D26" stroke-width="1.5" stroke-linecap="round" stroke-linejoin="round"/>
</g>
</g>
<defs>
<clipPath id="clip0_5202_2065">
<rect width="375" height="812" fill="white" transform="translate(-224 -61)"/>
</clipPath>
</defs>
</svg>
