<svg width="32" height="32" viewBox="0 0 32 32" fill="none" xmlns="http://www.w3.org/2000/svg">
<path id="Vector" d="M18.5901 3.18559L21.002 8.10437C21.2067 8.51849 21.509 8.87663 21.8828 9.14792C22.2567 9.41922 22.6909 9.59553 23.1481 9.66167L28.5606 10.4403C29.087 10.5167 29.5815 10.739 29.9881 11.082C30.3947 11.425 30.6971 11.8749 30.8611 12.3809C31.0252 12.8869 31.0443 13.4287 30.9163 13.9449C30.7883 14.4612 30.5183 14.9314 30.1369 15.3021L26.2247 19.1004C25.8835 19.4283 25.6299 19.8365 25.4872 20.2877C25.3446 20.739 25.3173 21.2188 25.4081 21.6832L26.3196 27.0768C26.4073 27.5989 26.3478 28.1351 26.1478 28.6252C25.9477 29.1154 25.6151 29.5401 25.1871 29.8517C24.7591 30.1633 24.2528 30.3495 23.7249 30.3893C23.197 30.4292 22.6684 30.3212 22.1985 30.0774L17.3557 27.4946C16.9454 27.28 16.4893 27.1679 16.0263 27.1679C15.5633 27.1679 15.1072 27.28 14.6969 27.4946L9.85409 30.0395C9.38416 30.2832 8.8556 30.3912 8.3277 30.3514C7.79981 30.3115 7.29347 30.1253 6.8655 29.8137C6.43753 29.5021 6.10486 29.0774 5.90481 28.5872C5.70476 28.0971 5.64524 27.5609 5.73295 27.0388L6.64454 21.6832C6.72535 21.2275 6.69316 20.759 6.55079 20.3186C6.40841 19.8782 6.1602 19.4795 5.8279 19.1574L1.91567 15.3591C1.51713 14.9909 1.23201 14.5166 1.09387 13.9919C0.955734 13.4672 0.970312 12.9139 1.13589 12.3972C1.30148 11.8805 1.61118 11.4219 2.02856 11.0752C2.44594 10.7285 2.95365 10.5083 3.49196 10.4403L8.90452 9.66167C9.36168 9.59553 9.7959 9.41922 10.1698 9.14792C10.5436 8.87663 10.8459 8.51849 11.0505 8.10437L13.4625 3.18559C13.7008 2.70983 14.0669 2.30979 14.5197 2.03022C14.9725 1.75065 15.4942 1.60258 16.0263 1.60258C16.5584 1.60258 17.0801 1.75065 17.5329 2.03022C17.9857 2.30979 18.3517 2.70983 18.5901 3.18559Z" stroke="#F2F2F2" stroke-width="1.5" stroke-miterlimit="10"/>
</svg>
