<svg width="230" height="211" viewBox="0 0 230 211" fill="none" xmlns="http://www.w3.org/2000/svg">
<path d="M104.049 164.597C30.2911 129.554 11.8517 156.19 11.8517 173.889C8.59773 214.242 49.3633 209.286 70.1528 201.764C79.0001 198.563 96.1849 189.021 135.233 196.455C184.043 205.746 196.246 187.163 194.89 164.597C193.534 142.031 169.129 147.341 147.436 161.942C130.081 173.623 111.28 168.579 104.049 164.597Z" fill="black"/>
<path fill-rule="evenodd" clip-rule="evenodd" d="M31.5715 153.244C19.7656 157.078 15.919 166.353 15.919 173.889V174.046L15.9064 174.202C15.1436 183.661 17.0001 189.905 19.9826 194.022C22.9548 198.125 27.4182 200.631 32.9212 201.904C44.1669 204.506 58.6557 201.678 68.7426 198.029C69.5586 197.733 70.4981 197.359 71.5661 196.933C75.8001 195.246 82.0525 192.754 90.6298 191.205C101.463 189.249 116.037 188.743 136.009 192.545C160.066 197.125 173.906 194.569 181.503 189.236C188.869 184.066 191.468 175.454 190.829 164.831C190.532 159.879 189.021 157.123 187.254 155.588C185.467 154.036 182.771 153.17 178.943 153.311C171.106 153.601 160.355 158.078 149.74 165.224C130.781 177.984 110.328 172.57 102.167 168.129C65.6216 150.783 43.8394 149.26 31.5715 153.244ZM29.0103 145.685C44.3898 140.691 68.6759 143.365 105.824 161.014L105.935 161.067L106.043 161.126C112.421 164.639 129.468 169.203 145.131 158.661C156.209 151.204 168.508 145.727 178.636 145.352C183.789 145.162 188.805 146.287 192.653 149.63C196.521 152.99 198.57 158.032 198.95 164.363C199.668 176.305 196.843 188.268 186.244 195.708C175.876 202.986 159.21 205.075 134.456 200.363C115.38 196.732 101.838 197.28 92.105 199.037C84.4426 200.421 79.1548 202.521 74.9235 204.202C73.7289 204.676 72.6185 205.117 71.5626 205.499C60.86 209.372 44.5712 212.783 31.0503 209.655C24.1699 208.063 17.7527 204.711 13.3469 198.629C8.97229 192.59 6.95171 184.371 7.78444 173.728C7.84067 163.591 13.2403 150.806 29.0103 145.685Z" fill="black"/>
<path d="M18.6309 197.782C21.3425 207.073 48.4593 210.525 70.1527 203.091C97.2695 193.799 30.8334 171.234 18.6309 197.782Z" fill="#FF5757"/>
<path d="M189.466 160.345C112.455 187.474 52.5265 167.659 32.189 154.36C41.6798 150.371 75.5758 153.363 95.9134 163.337C112.183 171.316 127.836 169.466 129.809 168.579C178.62 146.636 189.466 155.025 189.466 160.345Z" fill="white"/>
<path d="M197.501 118.138C158.182 136.722 127.902 101.767 124.287 75.6615C146.738 69.2802 172.855 48.3411 192.712 29.2027C242.028 54.6886 229.369 103.076 197.501 118.138Z" fill="white"/>
<path fill-rule="evenodd" clip-rule="evenodd" d="M219.066 0.906358C217.33 -0.490429 214.767 -0.245603 213.34 1.45319C207.878 7.95756 199.643 16.9339 189.858 26.365C180.025 35.843 168.686 45.7216 157.078 53.9969C145.424 62.3048 133.724 68.8325 123.153 71.8373L119.785 72.7946L120.256 76.1967C122.209 90.2989 131.248 106.507 145.035 116.822C159.047 127.305 178.073 131.743 199.269 121.724C216.487 113.587 228.542 96.4659 229.612 77.8025C230.628 60.0664 221.721 41.5671 199.374 28.318C207.688 20.0773 214.707 12.3658 219.624 6.51141C221.051 4.81261 220.801 2.30315 219.066 0.906358ZM193.397 34.1141C214.878 46.1382 222.338 62.5508 221.49 77.3563C220.592 93.0236 210.384 107.627 195.733 114.552C177.61 123.117 161.837 119.369 149.975 110.494C138.969 102.26 131.427 89.6472 128.911 78.3944C139.746 74.7065 151.052 68.1449 161.866 60.4353C173.036 52.4726 183.879 43.1421 193.397 34.1141Z" fill="black"/>
<path d="M145.122 99.4657C149.49 109.597 167.55 121.896 191.696 111.919C215.841 101.943 220.69 80.1784 216.323 70.0472C211.956 59.916 210.043 88.4905 185.897 98.467C161.751 108.443 140.755 89.3345 145.122 99.4657Z" fill="#DFECF1"/>
<path d="M156.826 65.0423C156.826 76.7719 166.539 86.2806 178.519 86.2806C190.5 86.2806 200.212 76.7719 200.212 65.0423C200.212 53.3127 190.5 43.804 178.519 43.804C166.539 43.804 156.826 53.3127 156.826 65.0423Z" fill="black"/>
<path d="M170.384 59.7327C170.384 62.6651 172.813 65.0423 175.808 65.0423C178.803 65.0423 181.231 62.6651 181.231 59.7327C181.231 56.8003 178.803 54.4231 175.808 54.4231C172.813 54.4231 170.384 56.8003 170.384 59.7327Z" fill="white"/>
<path d="M32.1892 118.138C71.5085 136.722 101.789 101.767 105.404 75.6615C82.9533 69.2802 56.8352 48.3411 36.9784 29.2027C-12.3392 54.6886 0.320126 103.076 32.1892 118.138Z" fill="white"/>
<path fill-rule="evenodd" clip-rule="evenodd" d="M10.6241 0.906358C12.3593 -0.490429 14.9225 -0.245603 16.3493 1.45319C21.8119 7.95756 30.0467 16.9339 39.8319 26.365C49.6656 35.843 61.0044 45.7216 72.6128 53.9969C84.2669 62.3048 95.9667 68.8325 106.539 71.8373L109.906 72.7946L109.435 76.1967C107.482 90.2989 98.4429 106.507 84.6555 116.822C70.6439 127.305 51.6174 131.743 30.4208 121.724C13.2032 113.587 1.14724 96.4659 0.0776172 77.8025C-0.938864 60.0664 7.96904 41.5671 30.3162 28.318C22.0017 20.0773 14.9823 12.3658 10.0655 6.51141C8.63883 4.81261 8.8889 2.30315 10.6241 0.906358ZM36.2933 34.1141C14.8122 46.1382 7.35135 62.5508 8.19988 77.3563C9.09779 93.0236 19.3061 107.627 33.9575 114.552C52.0803 123.117 67.8536 119.369 79.716 110.494C90.7224 102.26 98.2645 89.6472 100.78 78.3944C89.945 74.7065 78.6391 68.1449 67.8242 60.4353C56.6543 52.4726 45.8111 43.1421 36.2933 34.1141Z" fill="black"/>
<path d="M84.5683 99.4657C80.201 109.597 62.1403 121.896 37.9941 111.919C13.848 101.943 8.99927 80.1784 13.3665 70.0472C17.7338 59.916 19.647 88.4905 43.7931 98.467C67.9392 108.443 88.9355 89.3345 84.5683 99.4657Z" fill="#DFECF1"/>
<path d="M66.5105 80.3817C58.2164 88.6758 44.625 88.5317 36.1532 80.0599C27.6814 71.5881 27.5373 57.9966 35.8314 49.7026C44.1254 41.4085 57.7169 41.5526 66.1887 50.0244C74.6605 58.4962 74.8046 72.0876 66.5105 80.3817Z" fill="black"/>
<path d="M60.6775 67.0402C58.604 69.1137 55.2062 69.0777 53.0882 66.9597C50.9703 64.8418 50.9342 61.4439 53.0078 59.3704C55.0813 57.2969 58.4791 57.3329 60.5971 59.4509C62.715 61.5688 62.7511 64.9667 60.6775 67.0402Z" fill="white"/>
</svg>
