<svg width="327" height="360" viewBox="0 0 327 360" fill="none" xmlns="http://www.w3.org/2000/svg">
<path fill-rule="evenodd" clip-rule="evenodd" d="M65.6279 155.82C66.9514 154.831 68.8263 155.102 69.8156 156.425C74.9679 163.317 84.3913 171.764 95.7735 174.907C106.865 177.97 120.247 176.131 134.076 161.746C135.221 160.554 137.115 160.517 138.306 161.662C139.497 162.807 139.535 164.701 138.39 165.893C123.135 181.762 107.52 184.358 94.1807 180.675C81.1321 177.071 70.6905 167.589 65.023 160.008C64.0336 158.684 64.3045 156.809 65.6279 155.82Z" fill="black"/>
<path fill-rule="evenodd" clip-rule="evenodd" d="M260.812 158.907C259.541 157.851 257.655 158.025 256.599 159.296C251.347 165.614 240.867 173.006 228.125 175.387C215.56 177.735 200.663 175.244 186.147 161.662C184.94 160.533 183.047 160.596 181.918 161.803C180.789 163.01 180.852 164.903 182.059 166.032C198.004 180.95 214.84 183.956 229.224 181.269C243.432 178.614 255.12 170.436 261.2 163.121C262.257 161.85 262.083 159.964 260.812 158.907Z" fill="black"/>
<path d="M273.859 164.2C180.979 294.509 85.6363 218.496 49.5748 164.2C47.8158 220.703 67.0356 325.762 159.078 325.762C256.708 325.762 273.859 215.406 273.859 164.2Z" fill="white"/>
<path fill-rule="evenodd" clip-rule="evenodd" d="M46.8765 154.729L52.0672 162.545C69.8865 189.374 102.185 221.26 141.102 230.516C160.47 235.122 181.536 234.144 203.455 224.09C225.416 214.016 248.414 194.744 271.423 162.463L276.851 154.848V164.2C276.851 190.032 272.539 230.93 255.772 265.489C238.929 300.202 209.346 328.754 159.078 328.754C111.6 328.754 82.8962 301.521 66.4567 267.47C50.0872 233.564 45.6959 192.649 46.5845 164.107L46.8765 154.729ZM52.4713 173.526C52.7392 200.593 57.7037 235.577 71.8454 264.868C87.5868 297.473 114.514 322.77 159.078 322.77C206.441 322.77 234.248 296.143 250.388 262.877C264.727 233.323 269.721 198.717 270.684 173.559C249.08 201.955 227.267 219.75 205.95 229.529C182.742 240.174 160.304 241.233 139.718 236.337C102.483 227.482 71.5079 199.218 52.4713 173.526Z" fill="black"/>
<path fill-rule="evenodd" clip-rule="evenodd" d="M39.756 152.747C37.7749 158.713 37.317 167.078 37.5596 173.054C37.6266 174.705 36.3425 176.098 34.6914 176.165C33.0404 176.232 31.6477 174.948 31.5807 173.297C31.3266 167.036 31.7626 157.832 34.0771 150.861C35.22 147.419 36.9791 144.027 39.8093 142.021C42.9208 139.815 46.7146 139.69 50.7627 141.633C52.2523 142.349 52.8802 144.136 52.1651 145.625C51.45 147.115 49.6627 147.743 48.1731 147.028C45.6661 145.824 44.2582 146.202 43.2697 146.903C41.9999 147.803 40.7608 149.721 39.756 152.747Z" fill="black"/>
<path fill-rule="evenodd" clip-rule="evenodd" d="M286.993 152.573C288.601 158.625 288.966 167.071 288.771 173.079C288.718 174.731 290.013 176.113 291.664 176.167C293.316 176.22 294.698 174.925 294.752 173.273C294.954 167.044 294.605 157.92 292.776 151.037C291.886 147.687 290.505 144.292 288.17 142.223C286.922 141.117 285.36 140.357 283.519 140.273C281.719 140.191 279.963 140.77 278.304 141.766C276.887 142.616 276.428 144.454 277.278 145.871C278.128 147.288 279.966 147.747 281.383 146.897C282.346 146.319 282.941 146.237 283.247 146.251C283.512 146.263 283.81 146.354 284.202 146.702C285.147 147.539 286.164 149.454 286.993 152.573Z" fill="black"/>
<path fill-rule="evenodd" clip-rule="evenodd" d="M79.3866 216.558C80.2128 216.558 80.8825 217.228 80.8825 218.054V262.932C80.8825 263.759 80.2128 264.428 79.3866 264.428C78.5604 264.428 77.8906 263.759 77.8906 262.932V218.054C77.8906 217.228 78.5604 216.558 79.3866 216.558Z" fill="black"/>
<path fill-rule="evenodd" clip-rule="evenodd" d="M246.932 216.558C246.106 216.558 245.436 217.228 245.436 218.054V262.932C245.436 263.759 246.106 264.428 246.932 264.428C247.758 264.428 248.428 263.759 248.428 262.932V218.054C248.428 217.228 247.758 216.558 246.932 216.558Z" fill="black"/>
<path fill-rule="evenodd" clip-rule="evenodd" d="M118.281 237.501C119.107 237.501 119.777 238.171 119.777 238.997V301.827C119.777 302.653 119.107 303.322 118.281 303.322C117.455 303.322 116.785 302.653 116.785 301.827V238.997C116.785 238.171 117.455 237.501 118.281 237.501Z" fill="black"/>
<path fill-rule="evenodd" clip-rule="evenodd" d="M208.038 237.501C207.212 237.501 206.542 238.171 206.542 238.997V301.827C206.542 302.653 207.212 303.322 208.038 303.322C208.864 303.322 209.534 302.653 209.534 301.827V238.997C209.534 238.171 208.864 237.501 208.038 237.501Z" fill="black"/>
<path fill-rule="evenodd" clip-rule="evenodd" d="M163.16 243.485C163.986 243.485 164.655 244.155 164.655 244.981V313.794C164.655 314.62 163.986 315.29 163.16 315.29C162.333 315.29 161.664 314.62 161.664 313.794V244.981C161.664 244.155 162.333 243.485 163.16 243.485Z" fill="black"/>
<path fill-rule="evenodd" clip-rule="evenodd" d="M63.5755 228.791C64.2547 228.321 65.1866 228.49 65.657 229.169C80.183 250.143 105.704 275.488 138.367 283.101C170.859 290.674 210.887 280.797 254.78 230.401C255.322 229.778 256.267 229.713 256.89 230.256C257.513 230.798 257.579 231.743 257.036 232.366C212.635 283.345 171.549 293.907 137.688 286.015C103.997 278.162 77.9255 252.139 63.1974 230.873C62.727 230.194 62.8963 229.262 63.5755 228.791Z" fill="black"/>
<path d="M262.838 142.458C239.404 173.31 149.574 158.555 173.008 100.876C181.199 80.7149 195.984 67.3313 212.065 58.6886C253.725 56.7427 286.694 111.051 262.838 142.458Z" fill="white"/>
<path d="M178.119 124.627C178.119 133.896 191.317 149.241 220.74 149.241C250.164 149.241 264.884 133.895 264.884 124.627C264.884 115.359 250.164 136.934 220.74 136.934C191.317 136.934 178.119 115.359 178.119 124.627Z" fill="#DFECF1"/>
<path d="M190.086 126.801C190.086 135.889 197.454 143.257 206.542 143.257C215.63 143.257 222.997 135.889 222.997 126.801C222.997 117.713 215.63 110.346 206.542 110.346C197.454 110.346 190.086 117.713 190.086 126.801Z" fill="black"/>
<path d="M199.062 129.793C199.062 132.272 201.071 134.281 203.55 134.281C206.028 134.281 208.038 132.272 208.038 129.793C208.038 127.315 206.028 125.306 203.55 125.306C201.071 125.306 199.062 127.315 199.062 129.793Z" fill="white"/>
<path fill-rule="evenodd" clip-rule="evenodd" d="M223.657 56.5362C240.838 49.509 258.222 47.3256 269.293 47.5293C270.945 47.5597 272.309 46.245 272.339 44.5929C272.369 42.9408 271.055 41.5769 269.403 41.5465C255.307 41.2872 231.905 44.6282 210.648 56.0531C194.103 64.9458 178.747 78.8023 170.236 99.7494C164.084 114.891 165.24 127.646 171.307 137.602C177.296 147.428 187.785 154.062 199.452 157.721C211.145 161.387 224.328 162.171 236.153 160.032C247.931 157.9 258.749 152.788 265.221 144.268C278.144 127.254 275.435 104.415 264.578 86.5144C255.669 71.8241 240.916 59.8201 223.657 56.5362ZM212.877 61.6509C232.065 61.0522 249.514 73.2155 259.462 89.6174C269.541 106.236 271.388 126.256 260.456 140.649C255.21 147.554 246.012 152.167 235.088 154.143C224.211 156.112 212.008 155.387 201.243 152.011C190.453 148.628 181.413 142.686 176.417 134.488C171.5 126.419 170.215 115.7 175.78 102.002C183.55 82.8772 197.5 70.0507 212.877 61.6509Z" fill="black"/>
<path d="M66.7093 142.458C90.8324 173.31 183.305 158.555 159.182 100.876C150.75 80.7149 135.53 67.3313 118.976 58.6886C76.0905 56.7427 42.1516 111.051 66.7093 142.458Z" fill="white"/>
<path d="M151.192 124.627C151.192 133.896 137.995 149.241 108.571 149.241C79.1473 149.241 64.4277 133.895 64.4277 124.627C64.4277 115.359 79.1473 136.934 108.571 136.934C137.995 136.934 151.192 115.359 151.192 124.627Z" fill="#DFECF1"/>
<path d="M139.225 126.801C139.225 135.889 131.857 143.257 122.769 143.257C113.681 143.257 106.314 135.889 106.314 126.801C106.314 117.713 113.681 110.346 122.769 110.346C131.857 110.346 139.225 117.713 139.225 126.801Z" fill="black"/>
<path d="M133.241 129.793C133.241 132.272 131.232 134.281 128.753 134.281C126.274 134.281 124.265 132.272 124.265 129.793C124.265 127.315 126.274 125.306 128.753 125.306C131.232 125.306 133.241 127.315 133.241 129.793Z" fill="white"/>
<path fill-rule="evenodd" clip-rule="evenodd" d="M107.071 56.5344C89.3756 49.5095 71.4718 47.3254 60.0618 47.5293C58.4097 47.5588 57.0465 46.2435 57.0169 44.5914C56.9874 42.9393 58.3028 41.576 59.9549 41.5465C74.4396 41.2876 98.5017 44.6235 120.361 56.0363C137.37 64.9169 153.177 78.7638 161.942 99.7212C168.282 114.881 167.091 127.664 160.836 137.635C154.673 147.459 143.89 154.078 131.91 157.728C119.898 161.387 106.355 162.169 94.2093 160.034C82.1178 157.909 71.006 152.811 64.3523 144.301C51.0341 127.268 53.8323 104.391 65.0136 86.4815C74.1911 71.7816 89.3603 59.8099 107.071 56.5344ZM118.183 61.6522C98.3322 61.0336 80.328 73.2508 70.0893 89.6504C59.7192 106.261 57.8267 126.241 69.0662 140.615C74.474 147.532 83.9675 152.158 95.2453 154.141C106.469 156.114 119.06 155.387 130.166 152.004C141.303 148.611 150.623 142.655 155.768 134.455C160.82 126.4 162.143 115.71 156.421 102.03C148.422 82.9035 134.048 70.0636 118.183 61.6522Z" fill="black"/>
</svg>
