<svg width="194" height="271" viewBox="0 0 194 271" fill="none" xmlns="http://www.w3.org/2000/svg">
<path fill-rule="evenodd" clip-rule="evenodd" d="M32.206 213.871C33.8203 214.111 34.9365 215.623 34.699 217.25C33.9464 222.405 34.4962 231.147 37.0919 239.953C39.691 248.771 44.1873 257.134 50.8961 262.034C52.2171 263 52.5116 264.861 51.5537 266.192C50.5958 267.523 48.7484 267.819 47.4274 266.854C39.2341 260.869 34.2096 251.087 31.4273 241.648C28.6417 232.197 27.9497 222.568 28.8528 216.383C29.0903 214.757 30.5916 213.632 32.206 213.871Z" fill="black"/>
<path fill-rule="evenodd" clip-rule="evenodd" d="M154.754 213.871C153.14 214.111 152.023 215.623 152.261 217.25C153.014 222.405 152.464 231.147 149.868 239.953C147.269 248.771 142.773 257.134 136.064 262.034C134.743 263 134.448 264.861 135.406 266.192C136.364 267.523 138.212 267.819 139.533 266.854C147.726 260.869 152.75 251.087 155.533 241.648C158.318 232.197 159.01 222.568 158.107 216.383C157.87 214.757 156.368 213.632 154.754 213.871Z" fill="black"/>
<path d="M43.2524 193.003C43.2524 165.054 65.74 142.398 93.4798 142.398C121.22 142.398 143.707 165.054 143.707 193.003V219.793C143.707 247.741 121.22 270.398 93.4798 270.398C65.74 270.398 43.2524 247.741 43.2524 219.793V193.003Z" fill="black"/>
<path d="M52.1163 236.909C52.1163 244.542 71.2969 246.584 94.9573 246.584C118.618 246.584 137.798 243.16 137.798 235.527C137.798 227.894 118.618 207.886 94.9573 207.886C71.2969 207.886 52.1163 229.276 52.1163 236.909Z" fill="#DE3D3D"/>
<path d="M137.798 175.667C137.798 182.941 118.618 171.716 94.9572 171.716C71.2968 171.716 52.1162 181.624 52.1162 174.35C52.1162 167.076 71.2968 145.375 94.9572 145.375C118.618 145.375 137.798 168.393 137.798 175.667Z" fill="white"/>
<path d="M137.798 234.153C137.798 226.879 118.618 238.104 94.9572 238.104C71.2968 238.104 52.1162 228.196 52.1162 235.47C52.1162 242.743 71.2968 264.445 94.9572 264.445C118.618 264.445 137.798 241.426 137.798 234.153Z" fill="white"/>
<path d="M100.428 92.9335C100.428 118.596 121.232 139.4 146.895 139.4C172.558 139.4 193.362 118.596 193.362 92.9335C193.362 67.2706 172.558 46.4668 146.895 46.4668C121.232 46.4668 100.428 67.2706 100.428 92.9335Z" fill="white"/>
<path d="M112.42 100.263C112.42 111.614 122.907 130.407 146.29 130.407C169.673 130.407 181.37 111.614 181.37 100.263C181.37 88.9125 169.673 115.335 146.29 115.335C122.907 115.335 112.42 88.9125 112.42 100.263Z" fill="#DFECF1"/>
<path d="M127.409 92.933C127.409 100.383 133.448 106.423 140.899 106.423C148.349 106.423 154.389 100.383 154.389 92.933C154.389 85.4825 148.349 79.4426 140.899 79.4426C133.448 79.4426 127.409 85.4825 127.409 92.933Z" fill="black"/>
<path d="M133.404 92.9335C133.404 95.417 135.418 97.4303 137.901 97.4303C140.385 97.4303 142.398 95.417 142.398 92.9335C142.398 90.45 140.385 88.4368 137.901 88.4368C135.418 88.4368 133.404 90.45 133.404 92.9335Z" fill="white"/>
<path fill-rule="evenodd" clip-rule="evenodd" d="M146.895 133.404C124.544 133.404 106.424 115.285 106.424 92.9335C106.424 70.582 124.544 52.4625 146.895 52.4625C169.247 52.4625 187.366 70.582 187.366 92.9335C187.366 115.285 169.247 133.404 146.895 133.404ZM146.895 139.4C121.232 139.4 100.428 118.596 100.428 92.9335C100.428 67.2706 121.232 46.4668 146.895 46.4668C172.558 46.4668 193.362 67.2706 193.362 92.9335C193.362 118.596 172.558 139.4 146.895 139.4Z" fill="black"/>
<path d="M94.4329 92.9335C94.4329 118.596 73.629 139.4 47.9662 139.4C22.3034 139.4 1.49951 118.596 1.49951 92.9335C1.49951 67.2706 22.3034 46.4668 47.9662 46.4668C73.629 46.4668 94.4329 67.2706 94.4329 92.9335Z" fill="white"/>
<path d="M82.4413 100.263C82.4413 111.614 71.9535 130.407 48.5708 130.407C25.1882 130.407 13.4907 111.614 13.4907 100.263C13.4907 88.9125 25.1882 115.335 48.5708 115.335C71.9535 115.335 82.4413 88.9125 82.4413 100.263Z" fill="#DFECF1"/>
<path d="M67.4524 92.933C67.4524 100.383 61.4125 106.423 53.962 106.423C46.5115 106.423 40.4717 100.383 40.4717 92.933C40.4717 85.4825 46.5115 79.4426 53.962 79.4426C61.4125 79.4426 67.4524 85.4825 67.4524 92.933Z" fill="black"/>
<path d="M61.4564 92.9335C61.4564 95.417 59.4432 97.4303 56.9597 97.4303C54.4762 97.4303 52.4629 95.417 52.4629 92.9335C52.4629 90.45 54.4762 88.4368 56.9597 88.4368C59.4432 88.4368 61.4564 90.45 61.4564 92.9335Z" fill="white"/>
<path fill-rule="evenodd" clip-rule="evenodd" d="M47.9662 133.404C70.3177 133.404 88.4372 115.285 88.4372 92.9335C88.4372 70.582 70.3177 52.4625 47.9662 52.4625C25.6147 52.4625 7.49521 70.582 7.49521 92.9335C7.49521 115.285 25.6147 133.404 47.9662 133.404ZM47.9662 139.4C73.629 139.4 94.4329 118.596 94.4329 92.9335C94.4329 67.2706 73.629 46.4668 47.9662 46.4668C22.3034 46.4668 1.49951 67.2706 1.49951 92.9335C1.49951 118.596 22.3034 139.4 47.9662 139.4Z" fill="black"/>
<path fill-rule="evenodd" clip-rule="evenodd" d="M32.3428 13.3146C22.9497 19.0803 13.7456 29.3095 8.14907 37.0991C6.69999 39.116 3.89025 39.5763 1.87333 38.1273C-0.143587 36.6782 -0.603913 33.8684 0.845163 31.8515C6.77884 23.5926 16.8071 12.298 27.638 5.64978C33.0517 2.3267 39.0961 -0.103344 45.1895 0.00338313C51.5556 0.114886 57.396 2.98884 62.0387 9.09777C63.5413 11.0751 63.1566 13.8962 61.1793 15.3988C59.202 16.9015 56.3809 16.5168 54.8782 14.5395C51.7726 10.4529 48.4349 9.05516 45.032 8.99556C41.3565 8.93118 37.041 10.4306 32.3428 13.3146Z" fill="black"/>
<path fill-rule="evenodd" clip-rule="evenodd" d="M156.522 13.3146C165.916 19.0803 175.12 29.3095 180.716 37.0991C182.165 39.116 184.975 39.5763 186.992 38.1273C189.009 36.6782 189.469 33.8684 188.02 31.8515C182.086 23.5926 172.058 12.298 161.227 5.64978C155.814 2.3267 149.769 -0.103344 143.676 0.00338313C137.31 0.114886 131.469 2.98884 126.827 9.09777C125.324 11.0751 125.709 13.8962 127.686 15.3988C129.663 16.9015 132.484 16.5168 133.987 14.5395C137.093 10.4529 140.43 9.05516 143.833 8.99556C147.509 8.93118 151.824 10.4306 156.522 13.3146Z" fill="black"/>
</svg>
