<svg width="238" height="230" viewBox="0 0 238 230" fill="none" xmlns="http://www.w3.org/2000/svg">
<path d="M58.7729 87.8989C68.9274 85.1911 77.9424 88.3825 87.5776 92.7339C96.932 96.9585 107.183 102.5 118.5 102.5C129.741 102.499 137.591 98.5639 145.817 95.0034C154.012 91.4564 163.08 87.9995 177.5 87.9995C190.574 87.9997 198.958 97.4288 204.567 112.367C210.157 127.252 212.511 146.503 214.011 163.76C215.549 181.441 209.964 198.596 204.3 210.883C199.509 221.275 188.483 227 176.49 227H87.3472C75.7456 227 63.748 226.188 53.3569 222.944C43.0181 219.716 34.4879 214.156 29.4009 204.766C24.2635 195.283 20.611 182.021 21.9917 163.726C23.9822 137.352 28.0699 119.721 34.2183 108.021C40.2624 96.5195 48.3262 90.6848 58.7729 87.8989Z" fill="black" stroke="black" stroke-width="6"/>
<path fill-rule="evenodd" clip-rule="evenodd" d="M38.4294 96.033C44.7929 88.6735 52.9965 84.0638 63.128 84.7452C76.8847 85.6705 85.8413 89.6174 93.5791 93.0271C96.6097 94.3626 99.4533 95.6156 102.325 96.5725C112.529 99.9725 125.205 100.8 152.902 89.9649C168.741 83.7689 181.183 84.5914 190.727 90.4841C200.122 96.2846 206.101 106.637 209.931 118.212C217.591 141.354 217.241 171.184 216.618 186.273C216.091 199.033 211.145 209.383 204.96 216.561C198.898 223.598 191.262 227.988 185.103 227.988C178.148 227.988 168.556 228.31 157.507 228.682C149.08 228.965 139.804 229.277 130.203 229.496C108.152 229.999 84.5193 230.006 66.3599 227.97C47.7561 225.885 36.3222 218.654 29.316 210.2C22.3719 201.82 20.0088 192.516 18.9958 186.639C16.4188 171.69 17.7321 145.993 24.2385 124.295C27.4949 113.435 32.1244 103.325 38.4294 96.033ZM29.6888 125.929C23.4029 146.892 22.1937 171.695 24.6031 185.672C25.5413 191.114 27.666 199.291 33.6972 206.569C39.6665 213.772 49.6957 220.376 66.9938 222.315C84.7363 224.304 108.03 224.31 130.074 223.807C139.495 223.592 148.714 223.283 157.142 223C168.309 222.626 178.087 222.298 185.103 222.298C188.918 222.298 195.119 219.267 200.65 212.847C206.059 206.569 210.462 197.425 210.932 186.038C211.556 170.943 211.829 142.056 204.529 119.999C200.881 108.975 195.484 100.108 187.738 95.3257C180.142 90.6357 169.678 89.5124 154.975 95.264C126.575 106.374 112.449 105.943 100.526 101.971C96.9065 100.765 93.6849 99.3397 90.4424 97.9055C83.0047 94.6156 75.4577 91.2775 62.7461 90.4225C54.8314 89.8902 48.2463 93.3792 42.7336 99.7547C37.1625 106.198 32.8285 115.459 29.6888 125.929Z" fill="black"/>
<path d="M55.0199 164.966C67.0407 143.82 91.3327 139.735 115.124 149.347C182.24 131.085 191.506 180.184 187.749 207.016H48.759C45.8373 200.608 42.9991 186.111 55.0199 164.966Z" fill="#DE3D3D"/>
<path d="M58.5196 196.851C48.6715 199.665 46.2095 210.527 46.2095 215.606C54.8265 229.672 192.7 230.844 196.393 217.951C199.347 207.635 190.791 197.298 185.314 196.851C99.1429 189.818 70.8297 193.335 58.5196 196.851Z" fill="white"/>
<path d="M48.3754 124.09C40.4942 126.862 36.061 115.237 34.8296 109.078C39.3449 99.4545 54.7789 82.9795 80.3928 94.0655C106.007 105.151 128.008 103.304 135.807 100.994C181.124 82.5176 197.379 98.6846 199.842 109.078C199.432 116.776 194.178 129.864 176.445 120.626C154.279 109.078 58.2269 120.626 48.3754 124.09Z" fill="white"/>
<path fill-rule="evenodd" clip-rule="evenodd" d="M7.4244 161.522C8.98095 161.736 10.0688 163.172 9.85419 164.729C8.87066 171.862 8.75623 183.223 11.5967 193.916C14.4401 204.619 20.0967 214.175 30.2804 218.635C31.7197 219.265 32.3755 220.943 31.7451 222.383C31.1147 223.822 29.437 224.478 27.9977 223.847C15.587 218.412 9.16871 206.939 6.09737 195.377C3.0232 183.804 3.15437 171.662 4.21743 163.952C4.43204 162.395 5.86785 161.307 7.4244 161.522Z" fill="black"/>
<path fill-rule="evenodd" clip-rule="evenodd" d="M228.445 160.085C226.909 160.416 225.932 161.93 226.263 163.466C227.782 170.505 228.752 181.824 226.725 192.701C224.697 203.588 219.776 213.543 209.957 218.758C208.57 219.495 208.042 221.217 208.779 222.605C209.516 223.993 211.239 224.52 212.626 223.783C224.592 217.428 230.128 205.504 232.319 193.743C234.512 181.972 233.467 169.874 231.826 162.266C231.494 160.73 229.981 159.753 228.445 160.085Z" fill="black"/>
<path d="M175.182 25.104C208.815 22.0618 218.807 60.4597 219.631 79.8957C190.527 73.8768 149.205 80.0562 129.432 84.6793C128.195 75.8064 133.141 28.9066 175.182 25.104Z" fill="white"/>
<path fill-rule="evenodd" clip-rule="evenodd" d="M222.347 77.5786C227.178 78.6994 231.707 80.1825 235.757 82.1102C237.176 82.7854 237.779 84.483 237.104 85.9018C236.428 87.3205 234.731 87.9233 233.312 87.248C229.184 85.2833 224.37 83.7808 219.055 82.6816C190.58 76.7927 149.759 82.8483 130.079 87.4494L127.044 88.1591L126.614 85.0718C126.249 82.4559 126.369 77.5445 127.34 71.6961C128.32 65.7881 130.203 58.7098 133.509 51.767C140.15 37.8206 152.638 24.2863 174.926 22.2703C193.15 20.6219 204.98 30.3342 212.167 42.6352C218.774 53.946 221.635 67.6592 222.347 77.5786ZM216.544 76.4237C188.751 71.7409 152.152 76.8246 132.119 81.1592C132.154 78.9828 132.386 76.0476 132.953 72.6278C133.866 67.1277 135.615 60.5797 138.647 54.2132C144.68 41.5408 155.686 29.7239 175.439 27.9372C190.847 26.5435 200.829 34.5091 207.253 45.5055C212.969 55.29 215.697 67.2691 216.544 76.4237Z" fill="black"/>
<path d="M140.413 73.8688C136.843 75.4829 136.252 78.8897 140.144 78.44C146.87 77.6627 159.501 74.1591 175.226 73.8461C193.03 73.4916 206.246 74.4194 211.694 74.0073C213.698 73.8557 213.874 72.0711 212.078 71.17C206.389 68.3168 192.197 66.9498 173.854 66.4962C158.651 66.7989 146.888 70.9409 140.413 73.8688Z" fill="#DFECF1"/>
<path d="M154.874 61.9189C154.874 71.3465 162.517 78.9892 171.945 78.9892C181.372 78.9892 189.015 71.3465 189.015 61.9189C189.015 52.4913 181.372 44.8486 171.945 44.8486C162.517 44.8486 154.874 52.4913 154.874 61.9189Z" fill="black"/>
<path d="M166.254 67.6088C166.254 70.7513 168.802 73.2989 171.944 73.2989C175.087 73.2989 177.634 70.7513 177.634 67.6088C177.634 64.4662 175.087 61.9187 171.944 61.9187C168.802 61.9187 166.254 64.4662 166.254 67.6088Z" fill="white"/>
<path fill-rule="evenodd" clip-rule="evenodd" d="M180.61 0.0904832C145.668 -0.979323 129.105 26.431 125.167 40.135C124.516 42.4002 125.825 44.7642 128.09 45.4152C130.355 46.0661 132.719 44.7574 133.37 42.4922C136.748 30.7366 150.912 7.72036 180.348 8.62162C182.704 8.69375 184.672 6.84246 184.745 4.48665C184.817 2.13084 182.965 0.16261 180.61 0.0904832Z" fill="black"/>
<path d="M62.8867 25.104C29.2533 22.0618 19.2618 60.4597 18.4375 79.8957C47.5419 73.8768 88.864 80.0562 108.638 84.6793C109.874 75.8064 104.928 28.9066 62.8867 25.104Z" fill="white"/>
<path fill-rule="evenodd" clip-rule="evenodd" d="M15.7211 77.5786C10.8902 78.6994 6.3613 80.1825 2.31104 82.1102C0.892261 82.7854 0.289514 84.483 0.964769 85.9018C1.64002 87.3205 3.33757 87.9233 4.75635 87.248C8.88454 85.2833 13.6981 83.7808 19.0137 82.6816C47.4893 76.7927 88.3102 82.8483 107.99 87.4494L111.025 88.1591L111.456 85.0718C111.82 82.4559 111.7 77.5445 110.73 71.6961C109.749 65.7881 107.866 58.7098 104.56 51.767C97.9199 37.8206 85.4313 24.2863 63.143 22.2703C44.9186 20.6219 33.0883 30.3342 25.9021 42.6352C19.2945 53.946 16.4336 67.6592 15.7211 77.5786ZM21.5249 76.4237C49.3177 71.7409 85.9169 76.8246 105.951 81.1592C105.916 78.9828 105.684 76.0476 105.116 72.6278C104.204 67.1277 102.454 60.5797 99.4229 54.2132C93.389 41.5408 82.3837 29.7239 62.6304 27.9372C47.2214 26.5435 37.2393 34.5091 30.8153 45.5055C25.0993 55.29 22.3713 67.2691 21.5249 76.4237Z" fill="black"/>
<path d="M97.656 73.8688C101.226 75.4829 101.818 78.8897 97.9256 78.44C91.1996 77.6627 78.5682 74.1591 62.8423 73.8461C45.0389 73.4916 31.8225 74.4194 26.3741 74.0073C24.37 73.8557 24.1942 72.0711 25.9907 71.17C31.6793 68.3168 45.8713 66.9498 64.2145 66.4962C79.4175 66.7989 91.1806 70.9409 97.656 73.8688Z" fill="#DFECF1"/>
<path d="M83.1952 61.9189C83.1952 71.3465 75.5526 78.9892 66.125 78.9892C56.6973 78.9892 49.0547 71.3465 49.0547 61.9189C49.0547 52.4913 56.6973 44.8486 66.125 44.8486C75.5526 44.8486 83.1952 52.4913 83.1952 61.9189Z" fill="black"/>
<path d="M71.8152 67.6088C71.8152 70.7513 69.2677 73.2989 66.1251 73.2989C62.9826 73.2989 60.4351 70.7513 60.4351 67.6088C60.4351 64.4662 62.9826 61.9187 66.1251 61.9187C69.2677 61.9187 71.8152 64.4662 71.8152 67.6088Z" fill="white"/>
<path fill-rule="evenodd" clip-rule="evenodd" d="M57.4593 0.0904832C92.4014 -0.979323 108.964 26.431 112.902 40.135C113.553 42.4002 112.245 44.7642 109.979 45.4152C107.714 46.0661 105.35 44.7574 104.699 42.4922C101.321 30.7366 87.1576 7.72036 57.7205 8.62162C55.3647 8.69375 53.3964 6.84246 53.3243 4.48665C53.2522 2.13084 55.1035 0.16261 57.4593 0.0904832Z" fill="black"/>
</svg>
