<svg width="215" height="248" viewBox="0 0 215 248" fill="none" xmlns="http://www.w3.org/2000/svg">
<path d="M3.01228 206.02C3.01228 206.02 1.96191 239.107 19.2929 243.308C36.6239 247.51 46.6024 242.258 46.6024 242.258" stroke="black" stroke-width="6" stroke-linecap="round"/>
<path d="M211.508 206.02C211.508 206.02 212.558 239.061 195.228 243.257C177.897 247.453 167.919 242.208 167.919 242.208" stroke="black" stroke-width="6" stroke-linecap="round"/>
<path d="M199.369 212.912C199.369 237.889 158.873 215.496 108.919 215.496C58.9653 215.496 15.8853 237.889 15.8853 212.912C15.8853 187.935 58.9653 140.552 108.919 140.552C158.873 140.552 199.369 187.935 199.369 212.912Z" fill="black"/>
<path d="M141.223 157.349C121.582 137.709 86.0917 147.874 70.1553 156.057L75.3238 168.979L137.347 167.687L141.223 157.349Z" fill="white"/>
<path d="M137.346 215.495C108.919 212.911 90.8293 215.495 80.4921 215.495L76.6157 206.45H141.223L137.346 215.495Z" fill="white"/>
<path d="M206.809 135.646C206.809 135.646 206.283 148.776 196.83 149.826C187.377 150.876 177.924 150.876 177.924 150.876" stroke="black" stroke-width="6" stroke-linecap="round"/>
<path d="M204.183 47.9405C204.183 47.9405 180.025 9.07707 156.393 3.82525C132.76 -1.42657 123.833 20.1059 123.833 20.1059" stroke="black" stroke-width="6" stroke-linecap="round"/>
<path d="M119.603 94.0346C119.603 118.298 139.272 137.967 163.534 137.967C187.797 137.967 207.466 118.298 207.466 94.0346C207.466 69.7712 187.797 50.1018 163.534 50.1018C139.272 50.1018 119.603 69.7712 119.603 94.0346Z" fill="white"/>
<path fill-rule="evenodd" clip-rule="evenodd" d="M163.534 132.799C142.126 132.799 124.771 115.443 124.771 94.0346C124.771 72.6257 142.126 55.2704 163.534 55.2704C184.943 55.2704 202.297 72.6257 202.297 94.0346C202.297 115.443 184.943 132.799 163.534 132.799ZM163.534 137.967C139.272 137.967 119.603 118.298 119.603 94.0346C119.603 69.7712 139.272 50.1018 163.534 50.1018C187.797 50.1018 207.466 69.7712 207.466 94.0346C207.466 118.298 187.797 137.967 163.534 137.967Z" fill="black"/>
<path d="M129.94 99.2829C129.94 109.957 140.159 127.63 162.945 127.63C185.73 127.63 197.129 109.957 197.129 99.2829C197.129 88.6085 185.73 113.456 162.945 113.456C140.159 113.456 129.94 88.6085 129.94 99.2829Z" fill="#DFECF1"/>
<path d="M140.277 70.776C140.277 80.7668 148.376 88.866 158.366 88.866C168.357 88.866 176.456 80.7668 176.456 70.776C176.456 60.7852 168.357 52.686 158.366 52.686C148.376 52.686 140.277 60.7852 140.277 70.776Z" fill="black"/>
<path d="M145.445 68.1915C145.445 71.046 147.759 73.3601 150.613 73.3601C153.468 73.3601 155.782 71.046 155.782 68.1915C155.782 65.337 153.468 63.0229 150.613 63.0229C147.759 63.0229 145.445 65.337 145.445 68.1915Z" fill="white"/>
<path d="M8.78955 135.646C8.78955 135.646 9.31473 148.776 18.768 149.826C28.2213 150.876 37.6746 150.876 37.6746 150.876" stroke="black" stroke-width="6" stroke-linecap="round"/>
<path d="M11.415 47.9405C11.415 47.9405 35.5734 9.07707 59.2066 3.82525C82.8398 -1.42657 91.7679 20.1059 91.7679 20.1059" stroke="black" stroke-width="6" stroke-linecap="round"/>
<path d="M95.9979 94.0346C95.9979 118.298 76.3285 137.967 52.0651 137.967C27.8017 137.967 8.13232 118.298 8.13232 94.0346C8.13232 69.7712 27.8017 50.1018 52.0651 50.1018C76.3285 50.1018 95.9979 69.7712 95.9979 94.0346Z" fill="white"/>
<path fill-rule="evenodd" clip-rule="evenodd" d="M52.0651 132.799C73.474 132.799 90.8293 115.443 90.8293 94.0346C90.8293 72.6257 73.474 55.2704 52.0651 55.2704C30.6562 55.2704 13.3009 72.6257 13.3009 94.0346C13.3009 115.443 30.6562 132.799 52.0651 132.799ZM52.0651 137.967C76.3285 137.967 95.9979 118.298 95.9979 94.0346C95.9979 69.7712 76.3285 50.1018 52.0651 50.1018C27.8017 50.1018 8.13232 69.7712 8.13232 94.0346C8.13232 118.298 27.8017 137.967 52.0651 137.967Z" fill="black"/>
<path d="M85.661 99.2829C85.661 109.957 75.4408 127.63 52.6548 127.63C29.8687 127.63 18.4697 109.957 18.4697 99.2829C18.4697 88.6085 29.8687 113.456 52.6548 113.456C75.4408 113.456 85.661 88.6085 85.661 99.2829Z" fill="#DFECF1"/>
<path d="M75.3235 70.776C75.3235 80.7668 67.2243 88.866 57.2335 88.866C47.2427 88.866 39.1436 80.7668 39.1436 70.776C39.1436 60.7852 47.2427 52.686 57.2335 52.686C67.2243 52.686 75.3235 60.7852 75.3235 70.776Z" fill="black"/>
<path d="M70.155 68.1915C70.155 71.046 67.841 73.3601 64.9864 73.3601C62.1319 73.3601 59.8179 71.046 59.8179 68.1915C59.8179 65.337 62.1319 63.0229 64.9864 63.0229C67.841 63.0229 70.155 65.337 70.155 68.1915Z" fill="white"/>
</svg>
